G04 DipTrace 3.0.0.2*
G04 wifihat.GTL*
%MOMM*%
G04 #@! TF.FileFunction,Copper,L1,Top*
G04 #@! TF.Part,Single*
G04 #@! TA.AperFunction,Conductor*
%ADD10C,0.254*%
%ADD14C,0.508*%
%ADD15C,0.1778*%
G04 #@! TA.AperFunction,CopperBalancing*
%ADD16C,0.635*%
%ADD17C,0.33*%
%ADD18R,1.5X1.3*%
%ADD19R,1.3X1.5*%
G04 #@! TA.AperFunction,ComponentPad*
%ADD20R,1.5X1.5*%
%ADD21C,1.5*%
%ADD22R,1.0X1.2*%
%ADD24R,0.8X1.7*%
%ADD25R,1.0X2.0*%
%ADD26R,2.0X1.0*%
G04 #@! TA.AperFunction,ViaPad*
%ADD29C,0.8*%
%FSLAX35Y35*%
G04*
G71*
G90*
G75*
G01*
G04 Top*
%LPD*%
X3716000Y2375000D2*
D14*
Y2192000D1*
X3721000Y2187000D1*
X4632000Y231000D2*
Y124000D1*
X4672000Y84000D1*
X4962000D1*
X5057000Y179000D1*
X1045000Y2776367D2*
D10*
X1045633D1*
X1167000Y2655000D1*
X1420367D1*
X1553000Y2522367D1*
X1553367D1*
X1683000Y2652000D1*
Y2864000D1*
X1720000Y2901000D1*
X1936367D1*
X2061000Y2776367D1*
X2823000D2*
Y2876000D1*
X2752000Y2947000D1*
X2231633D1*
X2061000Y2776367D1*
X5363000Y2522367D2*
X5477367D1*
X5530000Y2575000D1*
Y2871000D1*
X5494000Y2907000D1*
X4731633D1*
X4601000Y2776367D1*
Y2833000D1*
X4524000Y2910000D1*
X4226633D1*
X4093000Y2776367D1*
Y2848000D1*
X4024000Y2917000D1*
X3786000D1*
X3725000Y2856000D1*
Y2662367D1*
X3585000Y2522367D1*
Y2525000D1*
X3462000Y2648000D1*
Y2832000D1*
X3377000Y2917000D1*
X2963633D1*
X2823000Y2776367D1*
X5286000Y2049000D2*
D15*
Y2067000D1*
X5216000Y2137000D1*
Y2274000D1*
X5219000Y2277000D1*
X3921000Y2187000D2*
D14*
X4075000D1*
X4219000Y2277000D2*
X4165000D1*
X4075000Y2187000D1*
X4044000Y1952000D2*
D15*
X2772900D1*
X2724400Y2000500D1*
X4044000Y1752000D2*
X2642700D1*
X2394200Y2000500D1*
X4044000Y1552000D2*
X3254000D1*
X3253000Y1551000D1*
X4044000Y1352000D2*
X3434800D1*
X3263900Y1181100D1*
X3481000Y1853000D2*
X4252000D1*
X4316000Y1789000D1*
X4309000Y1541000D2*
Y1229000D1*
X4236000Y1156000D1*
X4048000D1*
X4044000Y1152000D1*
Y952000D2*
X3339600D1*
X3263900Y876300D1*
X4822000Y231000D2*
D14*
Y624000D1*
X4819000Y627000D1*
X5615000Y2014000D2*
Y2273000D1*
X5619000Y2277000D1*
X5397000Y179000D2*
D10*
Y386000D1*
X5324000Y459000D1*
Y1723000D1*
X5615000Y2014000D1*
X3073900Y876300D2*
D15*
X3028700D1*
X1942000Y1963000D1*
Y2607000D1*
X2003000Y2668000D1*
X2169367D1*
X2315000Y2522367D1*
X2724400Y2190500D2*
Y2443600D1*
X2708000Y2460000D1*
Y2841000D1*
X2666000Y2883000D1*
X2421633D1*
X2315000Y2776367D1*
X3481000Y2043000D2*
Y2167000D1*
X3214000Y2434000D1*
Y2639367D1*
X3077000Y2776367D1*
X3063000Y1551000D2*
Y1638000D1*
X3111000Y1686000D1*
X3817000D1*
X3845000Y1658000D1*
X5004000D1*
X5110000Y1764000D1*
Y2521367D1*
X5109000Y2522367D1*
X3073900Y1181100D2*
X2846900D1*
X2061000Y1967000D1*
Y2522367D1*
X2394200Y2190500D2*
Y2399200D1*
X2439000Y2444000D1*
Y2646367D1*
X2569000Y2776367D1*
D29*
X3716000Y2375000D3*
X5286000Y2049000D3*
X4075000Y2187000D3*
X4316000Y1789000D3*
X4309000Y1541000D3*
X5615000Y2014000D3*
D3*
X274503Y2865083D2*
D16*
X439653D1*
X634297D2*
X693653D1*
X888297D2*
X947653D1*
X1142297D2*
X1181437D1*
X1924637D2*
X1963653D1*
X2158297D2*
X2221623D1*
X2920297D2*
X2979653D1*
X3174297D2*
X3213437D1*
X3956637D2*
X3995653D1*
X4190297D2*
X4229437D1*
X4464637D2*
X4503653D1*
X4698297D2*
X4737437D1*
X5480637D2*
X5661907D1*
X322500Y2801917D2*
X406167D1*
X5509287D2*
X5606470D1*
X349787Y2738750D2*
X409267D1*
X5506557D2*
X5576083D1*
X362063Y2675583D2*
X453297D1*
X620777D2*
X707297D1*
X874777D2*
X961297D1*
X1128777D2*
X1192227D1*
X1405847D2*
X1446110D1*
X1659847D2*
X1700110D1*
X2906777D2*
X2993297D1*
X3437847D2*
X3478110D1*
X3691847D2*
X3732110D1*
X3945847D2*
X4009297D1*
X4176777D2*
X4240227D1*
X4453847D2*
X4517297D1*
X4684777D2*
X4748227D1*
X4961847D2*
X5002110D1*
X5215847D2*
X5256110D1*
X5469847D2*
X5562813D1*
X360947Y2612417D2*
X388280D1*
X907520D2*
X928553D1*
X1161520D2*
X1182553D1*
X1415520D2*
X1457017D1*
X1649057D2*
X1690430D1*
X2939520D2*
X2960553D1*
X3447520D2*
X3489017D1*
X3681057D2*
X3743017D1*
X3935057D2*
X3976430D1*
X4209520D2*
X4251017D1*
X4443057D2*
X4484430D1*
X4717520D2*
X4759017D1*
X4951057D2*
X5013017D1*
X5205057D2*
X5267017D1*
X5459057D2*
X5563930D1*
X346437Y2549250D2*
X388307D1*
X5493533D2*
X5579930D1*
X316177Y2486083D2*
X388307D1*
X5491177D2*
X5613540D1*
X6086367D2*
X6121910D1*
X-221837Y2422917D2*
X-164093D1*
X263590D2*
X388307D1*
X899087D2*
X936893D1*
X1153087D2*
X1190893D1*
X1407087D2*
X1467560D1*
X1638390D2*
X1698863D1*
X2146390D2*
X2229560D1*
X2931087D2*
X2968893D1*
X3439087D2*
X3499560D1*
X3924390D2*
X3984863D1*
X-221837Y2359750D2*
X-58920D1*
X158293D2*
X1874730D1*
X2128283D2*
X2326917D1*
X2461533D2*
X2659920D1*
X2788953D2*
X3195703D1*
X3380793D2*
X3618870D1*
X3813140D2*
X4110623D1*
X-221837Y2296583D2*
X1874730D1*
X2128283D2*
X2260813D1*
X2527637D2*
X2593817D1*
X2855060D2*
X3258953D1*
X3443923D2*
X3612547D1*
X4029437D2*
X4068703D1*
X-221837Y2233417D2*
X1874730D1*
X2128283D2*
X2260813D1*
X2527637D2*
X2593817D1*
X2855060D2*
X3322083D1*
X3507050D2*
X3612547D1*
X-221837Y2170250D2*
X1874730D1*
X2128283D2*
X2260813D1*
X2527637D2*
X2593817D1*
X2855060D2*
X3385210D1*
X3548227D2*
X3612547D1*
X-221837Y2107083D2*
X1874730D1*
X2128283D2*
X2260813D1*
X2527637D2*
X2590963D1*
X2857787D2*
X3347630D1*
X4127043D2*
X5042783D1*
X5363807D2*
X5531187D1*
X-221837Y2043917D2*
X1874730D1*
X2128283D2*
X2260813D1*
X2527637D2*
X2590963D1*
X2857787D2*
X3347630D1*
X3614453D2*
X3885520D1*
X4202450D2*
X5042783D1*
X5384270D2*
X5521637D1*
X-221837Y1980750D2*
X1874730D1*
X2139817D2*
X2260813D1*
X2527637D2*
X2590963D1*
X4202450D2*
X5042783D1*
X5177273D2*
X5217827D1*
X5354133D2*
X5483810D1*
X-221837Y1917583D2*
X1894943D1*
X2202943D2*
X2260813D1*
X2569680D2*
X2590950D1*
X4202450D2*
X5042783D1*
X5177273D2*
X5420683D1*
X-221837Y1854417D2*
X1958073D1*
X2266073D2*
X2447717D1*
X2632810D2*
X3347630D1*
X4387120D2*
X5042783D1*
X5177273D2*
X5357553D1*
X5553313D2*
X5604857D1*
X-221837Y1791250D2*
X2021200D1*
X2329323D2*
X2510970D1*
X4414407D2*
X5042783D1*
X5177273D2*
X5294303D1*
X5490187D2*
X5604857D1*
X-221837Y1728083D2*
X2084453D1*
X2392453D2*
X2574097D1*
X4391337D2*
X4981517D1*
X5165617D2*
X5253127D1*
X5426933D2*
X5604857D1*
X-221837Y1664917D2*
X2147580D1*
X2455580D2*
X2939593D1*
X5103480D2*
X5252880D1*
X5395060D2*
X5604857D1*
X-221837Y1601750D2*
X2210707D1*
X2518707D2*
X2939593D1*
X5033780D2*
X5252880D1*
X5395060D2*
X5604857D1*
X-221837Y1538583D2*
X2273960D1*
X2581960D2*
X2939593D1*
X4407337D2*
X5252880D1*
X5395060D2*
X5604857D1*
X-221837Y1475417D2*
X2337087D1*
X2645087D2*
X2939593D1*
X3376453D2*
X3885520D1*
X4202450D2*
X4237953D1*
X4379927D2*
X5252880D1*
X5395060D2*
X5604857D1*
X-221837Y1412250D2*
X2400217D1*
X2708217D2*
X3419440D1*
X4202450D2*
X4241637D1*
X4376330D2*
X5252880D1*
X5395060D2*
X5604857D1*
X-221837Y1349083D2*
X2463343D1*
X2771467D2*
X3339320D1*
X4202450D2*
X4241637D1*
X4376330D2*
X5252880D1*
X5395060D2*
X5604857D1*
X-221837Y1285917D2*
X2526597D1*
X2834597D2*
X2950507D1*
X3461287D2*
X3885520D1*
X4202450D2*
X4241637D1*
X4376330D2*
X5252880D1*
X5395060D2*
X5604857D1*
X-221837Y1222750D2*
X2589723D1*
X3398033D2*
X3885520D1*
X4375960D2*
X5252880D1*
X5395060D2*
X5604857D1*
X-221837Y1159583D2*
X2652850D1*
X3387367D2*
X3885520D1*
X4332053D2*
X5252880D1*
X5395060D2*
X5604857D1*
X-221837Y1096417D2*
X2716103D1*
X2901073D2*
X2950507D1*
X3387367D2*
X3885520D1*
X4255037D2*
X5252880D1*
X5395060D2*
X5604857D1*
X-221837Y1033250D2*
X2779230D1*
X2964323D2*
X3885520D1*
X4202450D2*
X5252880D1*
X5395060D2*
X5604857D1*
X-221837Y970083D2*
X2842360D1*
X4202450D2*
X5252880D1*
X5395060D2*
X5604857D1*
X-221837Y906917D2*
X2905610D1*
X4202450D2*
X5252880D1*
X5395060D2*
X5604857D1*
X-221837Y843750D2*
X2950507D1*
X3387367D2*
X5252880D1*
X5395060D2*
X5604857D1*
X-221837Y780583D2*
X2950507D1*
X3387367D2*
X4295417D1*
X4742697D2*
X4895320D1*
X-221837Y717417D2*
X4110623D1*
X-221837Y654250D2*
X9787D1*
X89583D2*
X4110623D1*
X-221837Y591083D2*
X-145613D1*
X244987D2*
X4110623D1*
X305633Y527917D2*
X4110623D1*
X6073840D2*
X6121910D1*
X340483Y464750D2*
X4295417D1*
X358593Y401583D2*
X4738183D1*
X4905787D2*
X5283513D1*
X5466123D2*
X5566287D1*
X362933Y338417D2*
X4508613D1*
X4945473D2*
X5325930D1*
X5468110D2*
X5561450D1*
X354127Y275250D2*
X4508613D1*
X5155447D2*
X5298520D1*
X5495393D2*
X5571000D1*
X330933Y212083D2*
X4508613D1*
X5155447D2*
X5298520D1*
X5495393D2*
X5596547D1*
X289013Y148917D2*
X4508613D1*
X5155447D2*
X5298520D1*
X5495393D2*
X5644173D1*
X214103Y85750D2*
X4958570D1*
X5155447D2*
X5298520D1*
X5495393D2*
X5741283D1*
X426460Y2664657D2*
X476440D1*
X462310Y2673563D1*
X447147Y2686513D1*
X434197Y2701677D1*
X423780Y2718677D1*
X416150Y2737100D1*
X411493Y2756490D1*
X409930Y2776367D1*
X411493Y2796243D1*
X416150Y2815633D1*
X423780Y2834057D1*
X434197Y2851057D1*
X447147Y2866220D1*
X462310Y2879170D1*
X479310Y2889587D1*
X497733Y2897217D1*
X517123Y2901873D1*
X537000Y2903437D1*
X556877Y2901873D1*
X576267Y2897217D1*
X594690Y2889587D1*
X611690Y2879170D1*
X626853Y2866220D1*
X639803Y2851057D1*
X650220Y2834057D1*
X657850Y2815633D1*
X662507Y2796243D1*
X663960Y2779133D1*
X665493Y2796243D1*
X670150Y2815633D1*
X677780Y2834057D1*
X688197Y2851057D1*
X701147Y2866220D1*
X716310Y2879170D1*
X733310Y2889587D1*
X751733Y2897217D1*
X771123Y2901873D1*
X791000Y2903437D1*
X810877Y2901873D1*
X830267Y2897217D1*
X848690Y2889587D1*
X865690Y2879170D1*
X880853Y2866220D1*
X893803Y2851057D1*
X904220Y2834057D1*
X911850Y2815633D1*
X916507Y2796243D1*
X917960Y2779133D1*
X919483Y2796183D1*
X923853Y2814707D1*
X930937Y2832370D1*
X940583Y2848780D1*
X952567Y2863563D1*
X966627Y2876390D1*
X982447Y2886973D1*
X999667Y2895077D1*
X1017907Y2900513D1*
X1036753Y2903170D1*
X1055783Y2902977D1*
X1074573Y2899947D1*
X1092700Y2894143D1*
X1109753Y2885700D1*
X1125357Y2874800D1*
X1139160Y2861697D1*
X1150847Y2846673D1*
X1160160Y2830077D1*
X1163920Y2821033D1*
X1172220Y2840963D1*
X1183883Y2860003D1*
X1198387Y2876980D1*
X1215363Y2891483D1*
X1234403Y2903147D1*
X1255030Y2911693D1*
X1276740Y2916903D1*
X1299000Y2918657D1*
X1321260Y2916903D1*
X1342970Y2911693D1*
X1363597Y2903147D1*
X1382637Y2891483D1*
X1399613Y2876980D1*
X1414117Y2860003D1*
X1425983Y2840530D1*
X1437883Y2860003D1*
X1452387Y2876980D1*
X1469363Y2891483D1*
X1488403Y2903147D1*
X1509030Y2911693D1*
X1530740Y2916903D1*
X1553000Y2918657D1*
X1575260Y2916903D1*
X1596970Y2911693D1*
X1617597Y2903147D1*
X1636637Y2891483D1*
X1653613Y2876980D1*
X1668117Y2860003D1*
X1679983Y2840530D1*
X1691883Y2860003D1*
X1706387Y2876980D1*
X1723363Y2891483D1*
X1742403Y2903147D1*
X1763030Y2911693D1*
X1784740Y2916903D1*
X1807000Y2918657D1*
X1829260Y2916903D1*
X1850970Y2911693D1*
X1871597Y2903147D1*
X1890637Y2891483D1*
X1907613Y2876980D1*
X1922117Y2860003D1*
X1933780Y2840963D1*
X1942070Y2821033D1*
X1949877Y2838000D1*
X1960330Y2853903D1*
X1973040Y2868070D1*
X1987723Y2880180D1*
X2004050Y2889960D1*
X2021653Y2897193D1*
X2040140Y2901713D1*
X2059097Y2903423D1*
X2078093Y2902280D1*
X2096710Y2898317D1*
X2114523Y2891613D1*
X2131137Y2882327D1*
X2146173Y2870663D1*
X2159303Y2856887D1*
X2170227Y2841300D1*
X2178700Y2824257D1*
X2184533Y2806140D1*
X2187593Y2787357D1*
X2187910Y2770020D1*
X2185540Y2751137D1*
X2180373Y2732817D1*
X2178903Y2728210D1*
X2192697Y2724320D1*
X2205947Y2716727D1*
X2205197Y2717317D1*
X2200170Y2728803D1*
X2194143Y2747353D1*
X2191093Y2766613D1*
Y2786120D1*
X2194143Y2805380D1*
X2200170Y2823930D1*
X2209027Y2841307D1*
X2220490Y2857087D1*
X2234280Y2870877D1*
X2250060Y2882340D1*
X2267437Y2891197D1*
X2285987Y2897223D1*
X2305247Y2900273D1*
X2324753D1*
X2344013Y2897223D1*
X2351537Y2895100D1*
X2384730Y2927937D1*
X2055633Y2928250D1*
X178043D1*
X210150Y2911130D1*
X230200Y2897737D1*
X249133Y2882807D1*
X266840Y2866440D1*
X283207Y2848733D1*
X298137Y2829800D1*
X311530Y2809750D1*
X323313Y2788713D1*
X333407Y2766817D1*
X341753Y2744193D1*
X348300Y2720987D1*
X353003Y2697340D1*
X355837Y2673393D1*
X356783Y2649300D1*
X355837Y2625207D1*
X353003Y2601260D1*
X348300Y2577613D1*
X341753Y2554407D1*
X333407Y2531783D1*
X323313Y2509887D1*
X311530Y2488850D1*
X298137Y2468800D1*
X283207Y2449867D1*
X266840Y2432160D1*
X249133Y2415793D1*
X230200Y2400863D1*
X210150Y2387470D1*
X189113Y2375687D1*
X167217Y2365593D1*
X144593Y2357247D1*
X121387Y2350700D1*
X97740Y2345997D1*
X73793Y2343163D1*
X49700Y2342217D1*
X25607Y2343163D1*
X1660Y2345997D1*
X-21987Y2350700D1*
X-45193Y2357247D1*
X-67817Y2365593D1*
X-89713Y2375687D1*
X-110750Y2387470D1*
X-130800Y2400863D1*
X-149733Y2415793D1*
X-167440Y2432160D1*
X-183807Y2449867D1*
X-198737Y2468800D1*
X-212130Y2488850D1*
X-228290Y2519380D1*
X-228250Y479467D1*
X-212130Y509450D1*
X-198737Y529500D1*
X-183807Y548433D1*
X-167440Y566140D1*
X-149733Y582507D1*
X-130800Y597437D1*
X-110750Y610830D1*
X-89713Y622613D1*
X-67817Y632707D1*
X-45193Y641053D1*
X-21987Y647600D1*
X1660Y652303D1*
X25607Y655137D1*
X49700Y656083D1*
X73793Y655137D1*
X97740Y652303D1*
X121387Y647600D1*
X144593Y641053D1*
X167217Y632707D1*
X189113Y622613D1*
X210150Y610830D1*
X230200Y597437D1*
X249133Y582507D1*
X266840Y566140D1*
X283207Y548433D1*
X298137Y529500D1*
X311530Y509450D1*
X323313Y488413D1*
X333407Y466517D1*
X341753Y443893D1*
X348300Y420687D1*
X353003Y397040D1*
X355837Y373093D1*
X356783Y349000D1*
X355837Y324907D1*
X353003Y300960D1*
X348300Y277313D1*
X341753Y254107D1*
X333407Y231483D1*
X323313Y209587D1*
X311530Y188550D1*
X298137Y168500D1*
X283207Y149567D1*
X266840Y131860D1*
X249133Y115493D1*
X230200Y100563D1*
X210150Y87170D1*
X181157Y71720D1*
X4964923Y71750D1*
X4964930Y316070D1*
X5149070D1*
Y71717D1*
X5304993Y71750D1*
X5304930Y316070D1*
X5332340D1*
X5332230Y359207D1*
X5271600Y420930D1*
X5264160Y434213D1*
X5260027Y448867D1*
X5259230Y459620D1*
X4901710Y459710D1*
Y474963D1*
X4899470Y465250D1*
Y357970D1*
X4939070Y358070D1*
Y103930D1*
X4514930D1*
Y358070D1*
X4744493D1*
X4744530Y474953D1*
X4736290Y459710D1*
X4301710D1*
Y474963D1*
X4116930Y474930D1*
Y779070D1*
X4301700D1*
X4301710Y794290D1*
X4736290D1*
Y779033D1*
X4901600Y779070D1*
X4901710Y794290D1*
X5259343D1*
X5259430Y1728083D1*
X5262400Y1743017D1*
X5268773Y1756843D1*
X5278827Y1769380D1*
X5522930Y2014000D1*
X5524063Y2028403D1*
X5527437Y2042450D1*
X5532967Y2055800D1*
X5537550Y2063680D1*
X5537530Y2125000D1*
X5536290Y2109710D1*
X5355340D1*
X5364503Y2097107D1*
X5371060Y2084233D1*
X5375527Y2070493D1*
X5377787Y2056223D1*
Y2041777D1*
X5375527Y2027507D1*
X5371060Y2013767D1*
X5364503Y2000893D1*
X5356010Y1989207D1*
X5345793Y1978990D1*
X5334107Y1970497D1*
X5321233Y1963940D1*
X5307493Y1959473D1*
X5293223Y1957213D1*
X5278777D1*
X5264507Y1959473D1*
X5250767Y1963940D1*
X5237893Y1970497D1*
X5226207Y1978990D1*
X5215990Y1989207D1*
X5207497Y2000893D1*
X5200940Y2013767D1*
X5196473Y2027507D1*
X5194213Y2041777D1*
Y2056223D1*
X5196457Y2070410D1*
X5170960Y2076867D1*
X5170210Y1754463D1*
X5166320Y1740670D1*
X5159317Y1728170D1*
X5153107Y1720893D1*
X5039830Y1608683D1*
X5027330Y1601680D1*
X5013537Y1597790D1*
X5004000Y1597040D1*
X4382023D1*
X4391033Y1582800D1*
X4396563Y1569450D1*
X4399937Y1555403D1*
X4401070Y1541000D1*
X4399937Y1526597D1*
X4396563Y1512550D1*
X4391033Y1499200D1*
X4383487Y1486883D1*
X4369937Y1472043D1*
X4369210Y1219463D1*
X4365320Y1205670D1*
X4358317Y1193170D1*
X4352107Y1185893D1*
X4271830Y1106683D1*
X4259330Y1099680D1*
X4245537Y1095790D1*
X4236000Y1095040D1*
X4196190D1*
X4196070Y849930D1*
X3891930D1*
Y890980D1*
X3380847Y891040D1*
X3380970Y749230D1*
X2956830D1*
Y861967D1*
X1892683Y1927170D1*
X1885680Y1939670D1*
X1881790Y1953463D1*
X1881040Y1963000D1*
Y2400927D1*
X1861453Y2390907D1*
X1840217Y2384007D1*
X1818163Y2380517D1*
X1795837D1*
X1773783Y2384007D1*
X1752547Y2390907D1*
X1732653Y2401043D1*
X1714590Y2414170D1*
X1698803Y2429957D1*
X1685677Y2448020D1*
X1675540Y2467913D1*
X1671930Y2477700D1*
X1664530Y2461477D1*
X1654187Y2445503D1*
X1641570Y2431250D1*
X1626970Y2419043D1*
X1610707Y2409157D1*
X1593150Y2401807D1*
X1574693Y2397163D1*
X1555750Y2395327D1*
X1536747Y2396340D1*
X1518107Y2400183D1*
X1500247Y2406763D1*
X1483573Y2415940D1*
X1468457Y2427503D1*
X1455237Y2441193D1*
X1444210Y2456707D1*
X1435623Y2473690D1*
X1434097Y2477647D1*
X1425780Y2457770D1*
X1414117Y2438730D1*
X1399613Y2421753D1*
X1382637Y2407250D1*
X1363597Y2395587D1*
X1342970Y2387040D1*
X1321260Y2381830D1*
X1299000Y2380077D1*
X1276740Y2381830D1*
X1255030Y2387040D1*
X1234403Y2395587D1*
X1215363Y2407250D1*
X1198387Y2421753D1*
X1183883Y2438730D1*
X1172017Y2458203D1*
X1160117Y2438730D1*
X1145613Y2421753D1*
X1128637Y2407250D1*
X1109597Y2395587D1*
X1088970Y2387040D1*
X1067260Y2381830D1*
X1045000Y2380077D1*
X1022740Y2381830D1*
X1001030Y2387040D1*
X980403Y2395587D1*
X961363Y2407250D1*
X944387Y2421753D1*
X929883Y2438730D1*
X918017Y2458203D1*
X906117Y2438730D1*
X891613Y2421753D1*
X874637Y2407250D1*
X855597Y2395587D1*
X834970Y2387040D1*
X813260Y2381830D1*
X791000Y2380077D1*
X768740Y2381830D1*
X747030Y2387040D1*
X726403Y2395587D1*
X707363Y2407250D1*
X690387Y2421753D1*
X679317Y2434377D1*
X679290Y2380077D1*
X394710D1*
Y2664657D1*
X426460D1*
X597490D2*
X679290D1*
Y2610460D1*
X690387Y2622980D1*
X707363Y2637483D1*
X726403Y2649147D1*
X746333Y2657437D1*
X724607Y2668023D1*
X708473Y2679743D1*
X694377Y2693840D1*
X682657Y2709973D1*
X673603Y2727740D1*
X667440Y2746703D1*
X664323Y2766397D1*
X664040Y2773600D1*
X662507Y2756490D1*
X657850Y2737100D1*
X650220Y2718677D1*
X639803Y2701677D1*
X626853Y2686513D1*
X611690Y2673563D1*
X597373Y2664650D1*
X835667Y2657437D2*
X855597Y2649147D1*
X874637Y2637483D1*
X891613Y2622980D1*
X906117Y2606003D1*
X917983Y2586530D1*
X929883Y2606003D1*
X944387Y2622980D1*
X961363Y2637483D1*
X980403Y2649147D1*
X1000333Y2657437D1*
X980977Y2666603D1*
X965300Y2677397D1*
X951413Y2690413D1*
X939623Y2705353D1*
X930200Y2721890D1*
X923350Y2739647D1*
X919230Y2758227D1*
X918017Y2772677D1*
X916507Y2756490D1*
X911850Y2737100D1*
X904220Y2718677D1*
X893803Y2701677D1*
X880853Y2686513D1*
X865690Y2673563D1*
X848690Y2663147D1*
X835570Y2657473D1*
X1089667Y2657437D2*
X1109597Y2649147D1*
X1128637Y2637483D1*
X1145613Y2622980D1*
X1160117Y2606003D1*
X1171983Y2586530D1*
X1183883Y2606003D1*
X1198387Y2622980D1*
X1215363Y2637483D1*
X1234837Y2649350D1*
X1215363Y2661250D1*
X1198387Y2675753D1*
X1183883Y2692730D1*
X1172220Y2711770D1*
X1163930Y2731700D1*
X1156530Y2715477D1*
X1146187Y2699503D1*
X1133570Y2685250D1*
X1118970Y2673043D1*
X1102707Y2663157D1*
X1089700Y2657450D1*
X1363163Y2649350D2*
X1382637Y2637483D1*
X1399613Y2622980D1*
X1414117Y2606003D1*
X1425780Y2586963D1*
X1434070Y2567033D1*
X1441877Y2584000D1*
X1452330Y2599903D1*
X1465040Y2614070D1*
X1479723Y2626180D1*
X1496050Y2635960D1*
X1508253Y2641283D1*
X1488403Y2649587D1*
X1469363Y2661250D1*
X1452387Y2675753D1*
X1437883Y2692730D1*
X1426017Y2712203D1*
X1414117Y2692730D1*
X1399613Y2675753D1*
X1382637Y2661250D1*
X1363163Y2649383D1*
X1597703Y2641270D2*
X1617753Y2631700D1*
X1633357Y2620800D1*
X1647160Y2607697D1*
X1658847Y2592673D1*
X1668160Y2576077D1*
X1671920Y2567033D1*
X1680220Y2586963D1*
X1691883Y2606003D1*
X1706387Y2622980D1*
X1723363Y2637483D1*
X1742837Y2649350D1*
X1723363Y2661250D1*
X1706387Y2675753D1*
X1691883Y2692730D1*
X1680017Y2712203D1*
X1668117Y2692730D1*
X1653613Y2675753D1*
X1636637Y2661250D1*
X1617597Y2649587D1*
X1597667Y2641297D1*
X2187960Y2519600D2*
X2186507Y2502490D1*
X2181850Y2483100D1*
X2174220Y2464677D1*
X2163803Y2447677D1*
X2150853Y2432513D1*
X2135690Y2419563D1*
X2121920Y2410957D1*
X2121960Y1992167D1*
X2872250Y1241960D1*
X2956910Y1242060D1*
X2956830Y1308170D1*
X3304713D1*
X3398970Y1401317D1*
X3411470Y1408320D1*
X3425263Y1412210D1*
X3434800Y1412960D1*
X3891827D1*
X3891930Y1490980D1*
X3370180Y1491040D1*
X3370070Y1423930D1*
X2945930D1*
Y1678070D1*
X3016997D1*
X3029803Y1691017D1*
X2637917Y1691227D1*
X2623863Y1694023D1*
X2610850Y1700023D1*
X2599023Y1709513D1*
X2424987Y1883500D1*
X2267130Y1883430D1*
Y2307570D1*
X2333233D1*
X2333240Y2396570D1*
X2315000Y2395297D1*
X2295123Y2396860D1*
X2275733Y2401517D1*
X2257310Y2409147D1*
X2240310Y2419563D1*
X2225147Y2432513D1*
X2212197Y2447677D1*
X2201780Y2464677D1*
X2194150Y2483100D1*
X2189493Y2502490D1*
X2187677Y2532337D1*
X2187960Y2525133D1*
X2189493Y2542243D1*
X2193143Y2558070D1*
X2184560Y2552030D1*
X2187677Y2532337D1*
X2666250Y2418643D2*
X2652637Y2407250D1*
X2633597Y2395587D1*
X2612970Y2387040D1*
X2591260Y2381830D1*
X2569000Y2380077D1*
X2546740Y2381830D1*
X2525030Y2387040D1*
X2504403Y2395587D1*
X2486853Y2406257D1*
X2455203Y2373990D1*
X2455160Y2307547D1*
X2521270Y2307570D1*
Y1959687D1*
X2668040Y1812873D1*
X3353973Y1812960D1*
X3353930Y1891083D1*
X2851513Y1891040D1*
X2851470Y1883430D1*
X2597330Y1883553D1*
Y2117570D1*
X2600183D1*
X2600110Y2304790D1*
X2666213D1*
X2666220Y2418413D1*
X2949983Y2458203D2*
X2938117Y2438730D1*
X2923613Y2421753D1*
X2906637Y2407250D1*
X2887597Y2395587D1*
X2866970Y2387040D1*
X2845260Y2381830D1*
X2823000Y2380077D1*
X2800740Y2381830D1*
X2782517Y2386057D1*
X2782580Y2304817D1*
X2848690Y2304790D1*
Y2117640D1*
X2851470Y2117570D1*
Y2013017D1*
X3353950Y2012960D1*
X3353930Y2160070D1*
X3401680D1*
X3167647Y2394410D1*
X3159597Y2406510D1*
X3141597Y2395587D1*
X3120970Y2387040D1*
X3099260Y2381830D1*
X3077000Y2380077D1*
X3054740Y2381830D1*
X3033030Y2387040D1*
X3012403Y2395587D1*
X2993363Y2407250D1*
X2976387Y2421753D1*
X2961883Y2438730D1*
X2950017Y2458203D1*
X2867667Y2657437D2*
X2887597Y2649147D1*
X2906637Y2637483D1*
X2923613Y2622980D1*
X2938117Y2606003D1*
X2949983Y2586530D1*
X2961883Y2606003D1*
X2976387Y2622980D1*
X2993363Y2637483D1*
X3012403Y2649147D1*
X3032333Y2657437D1*
X3010607Y2668023D1*
X2994473Y2679743D1*
X2980377Y2693840D1*
X2968657Y2709973D1*
X2959603Y2727740D1*
X2953440Y2746703D1*
X2950323Y2766397D1*
X2949910Y2770020D1*
X2947540Y2751137D1*
X2942373Y2732817D1*
X2934530Y2715477D1*
X2924187Y2699503D1*
X2911570Y2685250D1*
X2896970Y2673043D1*
X2880707Y2663157D1*
X2867700Y2657450D1*
X2750487Y2880690D2*
X2766050Y2889960D1*
X2783653Y2897193D1*
X2802140Y2901713D1*
X2821097Y2903423D1*
X2840093Y2902280D1*
X2858710Y2898317D1*
X2876523Y2891613D1*
X2893137Y2882327D1*
X2908173Y2870663D1*
X2921303Y2856887D1*
X2932227Y2841300D1*
X2940700Y2824257D1*
X2946533Y2806140D1*
X2949593Y2787357D1*
X2949997Y2780420D1*
X2951493Y2796243D1*
X2956150Y2815633D1*
X2963780Y2834057D1*
X2974197Y2851057D1*
X2987147Y2866220D1*
X3002310Y2879170D1*
X3019310Y2889587D1*
X3037733Y2897217D1*
X3057123Y2901873D1*
X3077000Y2903437D1*
X3096877Y2901873D1*
X3116267Y2897217D1*
X3134690Y2889587D1*
X3151690Y2879170D1*
X3166853Y2866220D1*
X3179803Y2851057D1*
X3190220Y2834057D1*
X3195893Y2820937D1*
X3204220Y2840963D1*
X3215883Y2860003D1*
X3230387Y2876980D1*
X3247363Y2891483D1*
X3266403Y2903147D1*
X3287030Y2911693D1*
X3308740Y2916903D1*
X3331000Y2918657D1*
X3353260Y2916903D1*
X3374970Y2911693D1*
X3395597Y2903147D1*
X3414637Y2891483D1*
X3431613Y2876980D1*
X3446117Y2860003D1*
X3457983Y2840530D1*
X3469883Y2860003D1*
X3484387Y2876980D1*
X3501363Y2891483D1*
X3520403Y2903147D1*
X3541030Y2911693D1*
X3562740Y2916903D1*
X3585000Y2918657D1*
X3607260Y2916903D1*
X3628970Y2911693D1*
X3649597Y2903147D1*
X3668637Y2891483D1*
X3685613Y2876980D1*
X3700117Y2860003D1*
X3711983Y2840530D1*
X3723883Y2860003D1*
X3738387Y2876980D1*
X3755363Y2891483D1*
X3774403Y2903147D1*
X3795030Y2911693D1*
X3816740Y2916903D1*
X3839000Y2918657D1*
X3861260Y2916903D1*
X3882970Y2911693D1*
X3903597Y2903147D1*
X3922637Y2891483D1*
X3939613Y2876980D1*
X3954117Y2860003D1*
X3965780Y2840963D1*
X3974070Y2821033D1*
X3981877Y2838000D1*
X3992330Y2853903D1*
X4005040Y2868070D1*
X4019723Y2880180D1*
X4036050Y2889960D1*
X4053653Y2897193D1*
X4072140Y2901713D1*
X4091097Y2903423D1*
X4110093Y2902280D1*
X4128710Y2898317D1*
X4146523Y2891613D1*
X4163137Y2882327D1*
X4178173Y2870663D1*
X4191303Y2856887D1*
X4202227Y2841300D1*
X4211920Y2821033D1*
X4220220Y2840963D1*
X4231883Y2860003D1*
X4246387Y2876980D1*
X4263363Y2891483D1*
X4282403Y2903147D1*
X4303030Y2911693D1*
X4324740Y2916903D1*
X4347000Y2918657D1*
X4369260Y2916903D1*
X4390970Y2911693D1*
X4411597Y2903147D1*
X4430637Y2891483D1*
X4447613Y2876980D1*
X4462117Y2860003D1*
X4473780Y2840963D1*
X4482070Y2821033D1*
X4489877Y2838000D1*
X4500330Y2853903D1*
X4513040Y2868070D1*
X4527723Y2880180D1*
X4544050Y2889960D1*
X4561653Y2897193D1*
X4580140Y2901713D1*
X4599097Y2903423D1*
X4618093Y2902280D1*
X4636710Y2898317D1*
X4654523Y2891613D1*
X4671137Y2882327D1*
X4686173Y2870663D1*
X4699303Y2856887D1*
X4710227Y2841300D1*
X4719920Y2821033D1*
X4728220Y2840963D1*
X4739883Y2860003D1*
X4754387Y2876980D1*
X4771363Y2891483D1*
X4790403Y2903147D1*
X4811030Y2911693D1*
X4832740Y2916903D1*
X4855000Y2918657D1*
X4877260Y2916903D1*
X4898970Y2911693D1*
X4919597Y2903147D1*
X4938637Y2891483D1*
X4955613Y2876980D1*
X4970117Y2860003D1*
X4981983Y2840530D1*
X4993883Y2860003D1*
X5008387Y2876980D1*
X5025363Y2891483D1*
X5044403Y2903147D1*
X5065030Y2911693D1*
X5086740Y2916903D1*
X5109000Y2918657D1*
X5131260Y2916903D1*
X5152970Y2911693D1*
X5173597Y2903147D1*
X5192637Y2891483D1*
X5209613Y2876980D1*
X5224117Y2860003D1*
X5235983Y2840530D1*
X5247883Y2860003D1*
X5262387Y2876980D1*
X5279363Y2891483D1*
X5298403Y2903147D1*
X5319030Y2911693D1*
X5340740Y2916903D1*
X5363000Y2918657D1*
X5385260Y2916903D1*
X5406970Y2911693D1*
X5427597Y2903147D1*
X5446637Y2891483D1*
X5463613Y2876980D1*
X5478117Y2860003D1*
X5489780Y2840963D1*
X5498327Y2820337D1*
X5503537Y2798627D1*
X5505290Y2776367D1*
X5503537Y2754107D1*
X5498327Y2732397D1*
X5489780Y2711770D1*
X5478117Y2692730D1*
X5463613Y2675753D1*
X5446637Y2661250D1*
X5427597Y2649587D1*
X5407667Y2641297D1*
X5427753Y2631700D1*
X5443357Y2620800D1*
X5457160Y2607697D1*
X5468847Y2592673D1*
X5478160Y2576077D1*
X5484890Y2558277D1*
X5488887Y2539667D1*
X5490070Y2522367D1*
X5488643Y2503387D1*
X5484400Y2484833D1*
X5477433Y2467123D1*
X5467900Y2450653D1*
X5463210Y2444280D1*
X5536290Y2444290D1*
Y2429033D1*
X5611310Y2429070D1*
X5611250Y2450750D1*
X5649573D1*
X5635503Y2466100D1*
X5621790Y2483497D1*
X5609483Y2501913D1*
X5598663Y2521237D1*
X5589390Y2541350D1*
X5581723Y2562130D1*
X5575710Y2583450D1*
X5571390Y2605173D1*
X5568787Y2627167D1*
X5567917Y2649300D1*
X5568787Y2671433D1*
X5571390Y2693427D1*
X5575710Y2715150D1*
X5581723Y2736470D1*
X5589390Y2757250D1*
X5598663Y2777363D1*
X5609483Y2796687D1*
X5621790Y2815103D1*
X5635503Y2832500D1*
X5650537Y2848763D1*
X5666800Y2863797D1*
X5684197Y2877510D1*
X5702613Y2889817D1*
X5721937Y2900637D1*
X5742050Y2909910D1*
X5762830Y2917577D1*
X5784150Y2923590D1*
X5809050Y2928287D1*
X2702417Y2928247D1*
X2749140Y2882140D1*
X2749903Y2881313D1*
X3466070Y2477700D2*
X3457780Y2457770D1*
X3446117Y2438730D1*
X3431613Y2421753D1*
X3414637Y2407250D1*
X3395597Y2395587D1*
X3374970Y2387040D1*
X3352437Y2381730D1*
X3530317Y2202830D1*
X3537320Y2190330D1*
X3541210Y2176537D1*
X3541960Y2160180D1*
X3608070Y2160070D1*
Y2012853D1*
X3891963Y2012960D1*
X3891930Y2054070D1*
X4196070D1*
Y1914047D1*
X4261537Y1913210D1*
X4275330Y1909320D1*
X4287830Y1902317D1*
X4295107Y1896107D1*
X4310277Y1880933D1*
X4330403Y1879937D1*
X4344450Y1876563D1*
X4357800Y1871033D1*
X4370117Y1863487D1*
X4381103Y1854103D1*
X4390487Y1843117D1*
X4398033Y1830800D1*
X4403563Y1817450D1*
X4406937Y1803403D1*
X4408070Y1789000D1*
X4406937Y1774597D1*
X4403563Y1760550D1*
X4398033Y1747200D1*
X4390487Y1734883D1*
X4381103Y1723897D1*
X4375727Y1718937D1*
X4978697Y1718960D1*
X5049030Y1789243D1*
X5049040Y2109653D1*
X4501710Y2109710D1*
X4301710D1*
Y2124963D1*
X4143097Y2124930D1*
X4129117Y2112513D1*
X4116800Y2104967D1*
X4103450Y2099437D1*
X4089403Y2096063D1*
X4075000Y2094930D1*
X4060597Y2096063D1*
X4046550Y2099437D1*
X4033200Y2104967D1*
X4025320Y2109550D1*
X4023070Y2108570D1*
Y2074930D1*
X3618930D1*
Y2299070D1*
X3638650D1*
X3638530Y2325327D1*
X3630940Y2339767D1*
X3626473Y2353507D1*
X3624213Y2367777D1*
Y2382223D1*
X3626473Y2396493D1*
X3628277Y2402880D1*
X3606693Y2397163D1*
X3587750Y2395327D1*
X3568747Y2396340D1*
X3550107Y2400183D1*
X3532247Y2406763D1*
X3515573Y2415940D1*
X3500457Y2427503D1*
X3487237Y2441193D1*
X3476210Y2456707D1*
X3467623Y2473690D1*
X3466097Y2477647D1*
X3395163Y2649350D2*
X3414637Y2637483D1*
X3431613Y2622980D1*
X3446117Y2606003D1*
X3457780Y2586963D1*
X3466070Y2567033D1*
X3473877Y2584000D1*
X3484330Y2599903D1*
X3497040Y2614070D1*
X3511723Y2626180D1*
X3528050Y2635960D1*
X3540253Y2641283D1*
X3520403Y2649587D1*
X3501363Y2661250D1*
X3484387Y2675753D1*
X3469883Y2692730D1*
X3458017Y2712203D1*
X3446117Y2692730D1*
X3431613Y2675753D1*
X3414637Y2661250D1*
X3395163Y2649383D1*
X3711980Y2518770D2*
X3709540Y2497137D1*
X3704373Y2478817D1*
X3698537Y2465380D1*
X3716000Y2467070D1*
X3724823Y2466597D1*
X3718150Y2483100D1*
X3713493Y2502490D1*
X3711997Y2526420D1*
X3713493Y2542243D1*
X3718150Y2561633D1*
X3725780Y2580057D1*
X3736197Y2597057D1*
X3749147Y2612220D1*
X3764310Y2625170D1*
X3781310Y2635587D1*
X3794430Y2641260D1*
X3774403Y2649587D1*
X3755363Y2661250D1*
X3738387Y2675753D1*
X3723883Y2692730D1*
X3712017Y2712203D1*
X3700117Y2692730D1*
X3685613Y2675753D1*
X3668637Y2661250D1*
X3649597Y2649587D1*
X3629667Y2641297D1*
X3649753Y2631700D1*
X3665357Y2620800D1*
X3679160Y2607697D1*
X3690847Y2592673D1*
X3700160Y2576077D1*
X3706890Y2558277D1*
X3710887Y2539667D1*
X3711983Y2527020D1*
X3957893Y2477797D2*
X3952220Y2464677D1*
X3941803Y2447677D1*
X3928853Y2432513D1*
X3913690Y2419563D1*
X3896690Y2409147D1*
X3878267Y2401517D1*
X3858877Y2396860D1*
X3839000Y2395297D1*
X3819123Y2396860D1*
X3804573Y2400150D1*
X3807787Y2382223D1*
Y2367777D1*
X3805527Y2353507D1*
X3801060Y2339767D1*
X3793450Y2325320D1*
X3793470Y2298973D1*
X4023070Y2299070D1*
Y2264467D1*
X4039767Y2272060D1*
X4055363Y2276897D1*
X4115490Y2336540D1*
X4116930Y2347180D1*
Y2382030D1*
X4093000Y2380077D1*
X4070740Y2381830D1*
X4049030Y2387040D1*
X4028403Y2395587D1*
X4009363Y2407250D1*
X3992387Y2421753D1*
X3977883Y2438730D1*
X3966220Y2457770D1*
X3957930Y2477700D1*
X3883570Y2641260D2*
X3896690Y2635587D1*
X3913690Y2625170D1*
X3928853Y2612220D1*
X3941803Y2597057D1*
X3952220Y2580057D1*
X3957893Y2566937D1*
X3966220Y2586963D1*
X3977883Y2606003D1*
X3992387Y2622980D1*
X4009363Y2637483D1*
X4028403Y2649147D1*
X4048333Y2657437D1*
X4028977Y2666603D1*
X4013300Y2677397D1*
X3999413Y2690413D1*
X3987623Y2705353D1*
X3978200Y2721890D1*
X3974097Y2731647D1*
X3965780Y2711770D1*
X3954117Y2692730D1*
X3939613Y2675753D1*
X3922637Y2661250D1*
X3903597Y2649587D1*
X3883667Y2641297D1*
X4137667Y2657437D2*
X4157597Y2649147D1*
X4176637Y2637483D1*
X4193613Y2622980D1*
X4208117Y2606003D1*
X4219780Y2586963D1*
X4228070Y2567033D1*
X4238657Y2588760D1*
X4250377Y2604893D1*
X4264473Y2618990D1*
X4280607Y2630710D1*
X4298373Y2639763D1*
X4302430Y2641260D1*
X4282403Y2649587D1*
X4263363Y2661250D1*
X4246387Y2675753D1*
X4231883Y2692730D1*
X4220220Y2711770D1*
X4211930Y2731700D1*
X4204530Y2715477D1*
X4194187Y2699503D1*
X4181570Y2685250D1*
X4166970Y2673043D1*
X4150707Y2663157D1*
X4137700Y2657450D1*
X4391570Y2641260D2*
X4404690Y2635587D1*
X4421690Y2625170D1*
X4436853Y2612220D1*
X4449803Y2597057D1*
X4460220Y2580057D1*
X4465893Y2566937D1*
X4474220Y2586963D1*
X4485883Y2606003D1*
X4500387Y2622980D1*
X4517363Y2637483D1*
X4536403Y2649147D1*
X4556333Y2657437D1*
X4536977Y2666603D1*
X4521300Y2677397D1*
X4507413Y2690413D1*
X4495623Y2705353D1*
X4486200Y2721890D1*
X4482097Y2731647D1*
X4473780Y2711770D1*
X4462117Y2692730D1*
X4447613Y2675753D1*
X4430637Y2661250D1*
X4411597Y2649587D1*
X4391667Y2641297D1*
X4645667Y2657437D2*
X4665597Y2649147D1*
X4684637Y2637483D1*
X4701613Y2622980D1*
X4716117Y2606003D1*
X4727780Y2586963D1*
X4736070Y2567033D1*
X4746657Y2588760D1*
X4758377Y2604893D1*
X4772473Y2618990D1*
X4788607Y2630710D1*
X4806373Y2639763D1*
X4810430Y2641260D1*
X4790403Y2649587D1*
X4771363Y2661250D1*
X4754387Y2675753D1*
X4739883Y2692730D1*
X4728220Y2711770D1*
X4719930Y2731700D1*
X4712530Y2715477D1*
X4702187Y2699503D1*
X4689570Y2685250D1*
X4674970Y2673043D1*
X4658707Y2663157D1*
X4645700Y2657450D1*
X4981960Y2519600D2*
X4980507Y2502490D1*
X4975850Y2483100D1*
X4968220Y2464677D1*
X4957803Y2447677D1*
X4955123Y2444280D1*
X5008740Y2444290D1*
X4995780Y2464677D1*
X4988150Y2483100D1*
X4983493Y2502490D1*
X4981677Y2532337D1*
X4981960Y2525133D1*
X4983493Y2542243D1*
X4988150Y2561633D1*
X4995780Y2580057D1*
X5006197Y2597057D1*
X5019147Y2612220D1*
X5034310Y2625170D1*
X5051310Y2635587D1*
X5064430Y2641260D1*
X5044403Y2649587D1*
X5025363Y2661250D1*
X5008387Y2675753D1*
X4993883Y2692730D1*
X4982017Y2712203D1*
X4970117Y2692730D1*
X4955613Y2675753D1*
X4938637Y2661250D1*
X4919597Y2649587D1*
X4899667Y2641297D1*
X4921393Y2630710D1*
X4937527Y2618990D1*
X4951623Y2604893D1*
X4963343Y2588760D1*
X4972397Y2570993D1*
X4978560Y2552030D1*
X4981677Y2532337D1*
X5235960Y2519600D2*
X5234507Y2502490D1*
X5229850Y2483100D1*
X5222220Y2464677D1*
X5211803Y2447677D1*
X5198853Y2432513D1*
X5195103Y2429050D1*
X5276797Y2429070D1*
X5265237Y2441193D1*
X5254210Y2456707D1*
X5245623Y2473690D1*
X5239670Y2491767D1*
X5236483Y2510530D1*
X5236133Y2529560D1*
X5238630Y2548427D1*
X5243920Y2566710D1*
X5251877Y2584000D1*
X5262330Y2599903D1*
X5275040Y2614070D1*
X5289723Y2626180D1*
X5306050Y2635960D1*
X5318253Y2641283D1*
X5298403Y2649587D1*
X5279363Y2661250D1*
X5262387Y2675753D1*
X5247883Y2692730D1*
X5236017Y2712203D1*
X5224117Y2692730D1*
X5209613Y2675753D1*
X5192637Y2661250D1*
X5173597Y2649587D1*
X5153667Y2641297D1*
X5175393Y2630710D1*
X5191527Y2618990D1*
X5205623Y2604893D1*
X5217343Y2588760D1*
X5226397Y2570993D1*
X5232560Y2552030D1*
X5235677Y2532337D1*
X4196070Y1597143D2*
Y1216987D1*
X4210750Y1216960D1*
X4248057Y1254267D1*
X4248040Y1471963D1*
X4234513Y1486883D1*
X4226967Y1499200D1*
X4221437Y1512550D1*
X4218063Y1526597D1*
X4216930Y1541000D1*
X4218063Y1555403D1*
X4221437Y1569450D1*
X4226967Y1582800D1*
X4236070Y1597090D1*
X4195987Y1597040D1*
X3892000Y1249930D2*
X3891930Y1290980D1*
X3459973Y1291040D1*
X3381000Y1211990D1*
X3380970Y1054030D1*
X2956830D1*
Y1120133D1*
X2871123Y1120140D1*
X2988580Y1003370D1*
X3306943D1*
X3316270Y1008320D1*
X3330063Y1012210D1*
X3371350Y1012960D1*
X3891877D1*
X3892053Y1254070D1*
X5388650Y794290D2*
X5611223D1*
X5611250Y1918810D1*
X5388777Y1696177D1*
X5388770Y794190D1*
X5536290Y459777D2*
X5414870Y459710D1*
X5449400Y424070D1*
X5456840Y410787D1*
X5460973Y396133D1*
X5461770Y386000D1*
Y316173D1*
X5489070Y316070D1*
Y71620D1*
X5796127Y71750D1*
X5762530Y80423D1*
X5741750Y88090D1*
X5721637Y97363D1*
X5702313Y108183D1*
X5683897Y120490D1*
X5666500Y134203D1*
X5650237Y149237D1*
X5635203Y165500D1*
X5621490Y182897D1*
X5609183Y201313D1*
X5598363Y220637D1*
X5589090Y240750D1*
X5581423Y261530D1*
X5575410Y282850D1*
X5571090Y304573D1*
X5568487Y326567D1*
X5567617Y348700D1*
X5568487Y370833D1*
X5571090Y392827D1*
X5575410Y414550D1*
X5581423Y435870D1*
X5590500Y459713D1*
X5501710Y459833D1*
X3370070Y1625110D2*
Y1612957D1*
X3804043Y1612960D1*
X3791760Y1625030D1*
X3370143Y1625040D1*
X6128290Y2603560D2*
X6124290Y2583450D1*
X6118277Y2562130D1*
X6110610Y2541350D1*
X6101337Y2521237D1*
X6090517Y2501913D1*
X6078210Y2483497D1*
X6064497Y2466100D1*
X6050343Y2450790D1*
X6128303Y2450750D1*
X6128250Y2602883D1*
X6051807Y545303D2*
X6077910Y514503D1*
X6090217Y496087D1*
X6101037Y476763D1*
X6110310Y456650D1*
X6117977Y435870D1*
X6123990Y414550D1*
X6128293Y392913D1*
X6128253Y545333D1*
X6051980Y545250D1*
X1045000Y2903313D2*
D17*
Y2776367D1*
X918053D2*
X1045000D1*
X1553000Y2522367D2*
Y2395420D1*
X2061000Y2903313D2*
Y2776367D1*
X2187947D1*
X2823000Y2903313D2*
Y2776367D1*
X2949947D1*
X3585000Y2522367D2*
Y2395420D1*
Y2522367D2*
X3711947D1*
X4093000Y2903313D2*
Y2776367D1*
X4601000Y2903313D2*
Y2776367D1*
X5236053Y2522367D2*
X5489947D1*
X4219000Y778947D2*
Y475053D1*
X4117053Y627000D2*
X4219000D1*
X4632000Y357947D2*
Y104053D1*
X4515053Y231000D2*
X4632000D1*
X5057000Y315947D2*
Y179000D1*
X4965053D2*
X5148947D1*
D20*
X537000Y2522367D3*
D21*
Y2776367D3*
X791000Y2522367D3*
Y2776367D3*
X1045000Y2522367D3*
Y2776367D3*
X1299000Y2522367D3*
Y2776367D3*
X1553000Y2522367D3*
Y2776367D3*
X1807000Y2522367D3*
Y2776367D3*
X2061000Y2522367D3*
Y2776367D3*
X2315000Y2522367D3*
Y2776367D3*
X2569000Y2522367D3*
Y2776367D3*
X2823000Y2522367D3*
Y2776367D3*
X3077000Y2522367D3*
Y2776367D3*
X3331000Y2522367D3*
Y2776367D3*
X3585000Y2522367D3*
Y2776367D3*
X3839000Y2522367D3*
Y2776367D3*
X4093000Y2522367D3*
Y2776367D3*
X4347000Y2522367D3*
Y2776367D3*
X4601000Y2522367D3*
Y2776367D3*
X4855000Y2522367D3*
Y2776367D3*
X5109000Y2522367D3*
Y2776367D3*
X5363000Y2522367D3*
Y2776367D3*
D22*
X3721000Y2187000D3*
X3921000D3*
D18*
X2724400Y2000500D3*
Y2190500D3*
X2394200Y2000500D3*
Y2190500D3*
D19*
X3253000Y1551000D3*
X3063000D3*
X3263900Y1181100D3*
X3073900D3*
D18*
X3481000Y1853000D3*
Y2043000D3*
D19*
X3263900Y876300D3*
X3073900D3*
X4822000Y231000D3*
X4632000D3*
D24*
X5397000Y179000D3*
X5057000D3*
D25*
X5618999Y2277000D3*
X5418999D3*
X5218999D3*
X5018999D3*
X4818999D3*
X4618999D3*
X4418999D3*
X4218999D3*
D26*
X4043999Y1952000D3*
Y1752000D3*
Y1552000D3*
Y1352000D3*
Y1152000D3*
Y952000D3*
D25*
X4218999Y627000D3*
X4418999D3*
X4618999D3*
X4818999D3*
X5018999D3*
X5218999D3*
X5418999D3*
X5618999D3*
M02*
