M48
METRIC,0000.00
T01C0.4
T02C0.9
T03C2.75
%
T01
X+003716Y+002375
X+004075Y+002187
X+004316Y+001789
X+004309Y+001541
X+005286Y+002049
X+005615Y+002014
T02
X+000537Y+002522
X+000791Y+002522
X+000791Y+002776
X+000537Y+002776
X+001045Y+002776
X+001299Y+002776
X+001299Y+002522
X+001045Y+002522
X+001553Y+002522
X+001807Y+002522
X+002061Y+002522
X+002061Y+002776
X+001807Y+002776
X+001553Y+002776
X+002315Y+002776
X+002569Y+002776
X+002569Y+002522
X+002315Y+002522
X+002823Y+002522
X+002823Y+002776
X+003077Y+002776
X+003077Y+002522
X+003331Y+002522
X+003585Y+002522
X+003585Y+002776
X+003331Y+002776
X+003839Y+002776
X+004093Y+002776
X+004093Y+002522
X+003839Y+002522
X+004347Y+002522
X+004347Y+002776
X+004601Y+002776
X+004601Y+002522
X+004855Y+002522
X+004855Y+002776
X+005109Y+002776
X+005363Y+002776
X+005363Y+002522
X+005109Y+002522
T03
X+000050Y+000349
X+000050Y+002649
X+005850Y+002649
X+005850Y+000349
T00
M30
