G04 DipTrace 3.0.0.2*
G04 wifihat.GBS*
%MOMM*%
G04 #@! TF.FileFunction,Soldermask,Bot*
G04 #@! TF.Part,Single*
%ADD31C,2.75*%
%ADD36R,0.8X1.3*%
%ADD46C,1.7*%
%ADD48R,1.7X1.7*%
%ADD50R,1.5X1.7*%
%ADD52R,1.7X1.5*%
%FSLAX35Y35*%
G04*
G71*
G90*
G75*
G01*
G04 BotMask*
%LPD*%
D52*
X156000Y2045667D3*
Y1855667D3*
X489000Y2046000D3*
Y1856000D3*
X1169000Y1419000D3*
Y1229000D3*
X1539000Y1412000D3*
Y1222000D3*
D50*
X3880000Y2179000D3*
X3690000D3*
D31*
X49700Y349000D3*
Y2649300D3*
X5850000D3*
X5849700Y348700D3*
D48*
X537000Y2522367D3*
D46*
Y2776367D3*
X791000Y2522367D3*
Y2776367D3*
X1045000Y2522367D3*
Y2776367D3*
X1299000Y2522367D3*
Y2776367D3*
X1553000Y2522367D3*
Y2776367D3*
X1807000Y2522367D3*
Y2776367D3*
X2061000Y2522367D3*
Y2776367D3*
X2315000Y2522367D3*
Y2776367D3*
X2569000Y2522367D3*
Y2776367D3*
X2823000Y2522367D3*
Y2776367D3*
X3077000Y2522367D3*
Y2776367D3*
X3331000Y2522367D3*
Y2776367D3*
X3585000Y2522367D3*
Y2776367D3*
X3839000Y2522367D3*
Y2776367D3*
X4093000Y2522367D3*
Y2776367D3*
X4347000Y2522367D3*
Y2776367D3*
X4601000Y2522367D3*
Y2776367D3*
X4855000Y2522367D3*
Y2776367D3*
X5109000Y2522367D3*
Y2776367D3*
X5363000Y2522367D3*
Y2776367D3*
D52*
X832000Y2056667D3*
Y1866667D3*
X4472000Y2217000D3*
Y2027000D3*
X4863000Y2204000D3*
Y2014000D3*
D50*
X5194000Y1898000D3*
X5384000D3*
X5196000Y2205000D3*
X5386000D3*
D36*
X1167000Y2056000D3*
X1262000D3*
X1357000D3*
Y1786000D3*
X1167000D3*
G36*
X5677000Y2389000D2*
X6208000D1*
Y612000D1*
X5677000D1*
Y2389000D1*
G37*
M02*
